# xmcd
#
# Track frame offsets: 
#        150
#        40545
#        59105
#        92243
#        184361
#
# Disc length: 3959 seconds
#
# Revision: 1
# Processed by: cddbd v1.5.2PL0 Copyright (c) Steve Scherf et al.
# Submitted via: ExactAudioCopy v1.0b4
#
DISCID=430f7505
DTITLE=John Coltrane - So Many Things: The European Tour 1961 [CD4]
DYEAR=1961
DGENRE=Jazz
TTITLE0=Blue Train [Konserthuset, Stockholm 1961-11-23 (1st House)]
TTITLE1=Naima [Konserthuset, Stockholm 1961-11-23 (1st House)]
TTITLE2=Impressions [Konserthuset, Stockholm 1961-11-23 (1st House)]
TTITLE3=My Favourite Things [Konserthuset, Stockholm 1961-11-23 (1st H
TTITLE3=ouse)]
TTITLE4=My Favourite Things [Konserthuset, Stockholm 1961-11-23 (2nd H
TTITLE4=ouse)]
EXTD=YEAR: 1961
EXTT0=
EXTT1=
EXTT2=
EXTT3=
EXTT4=
PLAYORDER=
